<svg xmlns="http://www.w3.org/2000/svg" width="1800" height="1350" viewBox="0 0 1800 1350">
<defs>
<marker id="arrowBlack" viewBox="0 0 10 10" refX="9" refY="5" markerWidth="7" markerHeight="7" orient="auto-start-reverse">
<path d="M 0 0 L 10 5 L 0 10 z" fill="#111111" />
</marker>
<marker id="arrowRed" viewBox="0 0 10 10" refX="9" refY="5" markerWidth="8" markerHeight="8" orient="auto-start-reverse">
<path d="M 0 0 L 10 5 L 0 10 z" fill="#d62728" />
</marker>
<style>
text { font-family: Arial, Helvetica, sans-serif; }
.title { font-size: 44px; font-weight: 700; fill: #111111; }
.subtitle { font-size: 28px; fill: #4b4b4b; }
.node { fill: #1f77b4; stroke: white; stroke-width: 4px; }
.node-label { font-size: 30px; font-weight: 700; fill: white; dominant-baseline: middle; text-anchor: middle; }
.edge-label { font-size: 26px; font-weight: 700; dominant-baseline: middle; text-anchor: middle; }
</style>
</defs>
<rect x="0" y="0" width="100%" height="100%" fill="white" />
<text class="title" x="85" y="90">Genus-2 Topology 1 Oriented Graph</text>
<text class="subtitle" x="85" y="145">Blue nodes are vertices; red edges form one spanning tree {1, 4, 5, 8, 9}.</text>
<path d="M 340 250 Q 900 250 1460 250" fill="none" stroke="#d62728" stroke-width="13" stroke-linecap="round" marker-end="url(#arrowRed)"/>
<path d="M 1460 675 Q 980 360 340 250" fill="none" stroke="#111111" stroke-width="9" stroke-linecap="round" marker-end="url(#arrowBlack)"/>
<path d="M 340 250 Q 780 530 1460 1100" fill="none" stroke="#111111" stroke-width="9" stroke-linecap="round" marker-end="url(#arrowBlack)"/>
<path d="M 1460 250 Q 1020 420 340 675" fill="none" stroke="#d62728" stroke-width="13" stroke-linecap="round" marker-end="url(#arrowRed)"/>
<path d="M 340 675 Q 900 675 1460 675" fill="none" stroke="#d62728" stroke-width="13" stroke-linecap="round" marker-end="url(#arrowRed)"/>
<path d="M 1460 1100 Q 800 900 340 675" fill="none" stroke="#111111" stroke-width="9" stroke-linecap="round" marker-end="url(#arrowBlack)"/>
<path d="M 1460 250 Q 990 880 340 1100" fill="none" stroke="#111111" stroke-width="9" stroke-linecap="round" marker-end="url(#arrowBlack)"/>
<path d="M 1460 675 Q 860 900 340 1100" fill="none" stroke="#d62728" stroke-width="13" stroke-linecap="round" marker-end="url(#arrowRed)"/>
<path d="M 340 1100 Q 900 1100 1460 1100" fill="none" stroke="#d62728" stroke-width="13" stroke-linecap="round" marker-end="url(#arrowRed)"/>
<rect x="872" y="153" width="56" height="44" rx="14" ry="14" fill="white" opacity="0.92" />
<text class="edge-label" x="900" y="175" fill="#d62728">1</text>
<rect x="807" y="308" width="56" height="44" rx="14" ry="14" fill="white" opacity="0.92" />
<text class="edge-label" x="835" y="330" fill="#111111">2</text>
<rect x="757" y="538" width="56" height="44" rx="14" ry="14" fill="white" opacity="0.92" />
<text class="edge-label" x="785" y="560" fill="#111111">3</text>
<rect x="982" y="408" width="56" height="44" rx="14" ry="14" fill="white" opacity="0.92" />
<text class="edge-label" x="1010" y="430" fill="#d62728">4</text>
<rect x="872" y="583" width="56" height="44" rx="14" ry="14" fill="white" opacity="0.92" />
<text class="edge-label" x="900" y="605" fill="#d62728">5</text>
<rect x="732" y="823" width="56" height="44" rx="14" ry="14" fill="white" opacity="0.92" />
<text class="edge-label" x="760" y="845" fill="#111111">6</text>
<rect x="987" y="908" width="56" height="44" rx="14" ry="14" fill="white" opacity="0.92" />
<text class="edge-label" x="1015" y="930" fill="#111111">7</text>
<rect x="837" y="873" width="56" height="44" rx="14" ry="14" fill="white" opacity="0.92" />
<text class="edge-label" x="865" y="895" fill="#d62728">8</text>
<rect x="872" y="998" width="56" height="44" rx="14" ry="14" fill="white" opacity="0.92" />
<text class="edge-label" x="900" y="1020" fill="#d62728">9</text>
<circle class="node" cx="340" cy="250" r="42" />
<text class="node-label" x="340" y="250">1</text>
<circle class="node" cx="340" cy="675" r="42" />
<text class="node-label" x="340" y="675">2</text>
<circle class="node" cx="340" cy="1100" r="42" />
<text class="node-label" x="340" y="1100">3</text>
<circle class="node" cx="1460" cy="250" r="42" />
<text class="node-label" x="1460" y="250">4</text>
<circle class="node" cx="1460" cy="675" r="42" />
<text class="node-label" x="1460" y="675">5</text>
<circle class="node" cx="1460" cy="1100" r="42" />
<text class="node-label" x="1460" y="1100">6</text>
</svg>